{"asset":{"version":"2.0","generator":"THREE.GLTFExporter"},"scenes":[{"nodes":[0,1,6,12,13,14,15],"name":"Scene"}],"scene":0,"nodes":[{"rotation":[0.41061886289339,0.6855159072023952,-0.20756531856919422,0.5642488182848817],"translation":[-7,7,3],"name":"DirectionalLight","extras":{"components":{"directional-light":{"color":"white","intensity":1,"castShadow":true,"elevation":63,"azimuth":245}}}},{"name":"AmbientLight","extras":{"components":{"ambient-light":{"color":"white","intensity":1}}}},{"name":"Door1x2_25WindShape_1","extras":{"components":{"shadow":{"castShadow":true,"receiveShadow":true}}},"mesh":0},{"name":"Door1x2_25Wind_1","children":[2]},{"name":"Scene_1","children":[3]},{"translation":[0,0,6],"name":"red-door.scene","children":[4]},{"name":"Room","children":[5]},{"name":"node_0-0-0-0-0_1","extras":{"components":{"shadow":{"castShadow":true,"receiveShadow":true}}},"mesh":1},{"name":"readyobjcleanermaterialmergergles_1","children":[7]},{"name":"RootNode_(model_correction_matrix)_1","children":[8]},{"rotation":[-0.7071067811865475,0,0,0.7071067811865476],"name":"RootNode_(gltf_orientation_matrix)_1","children":[9]},{"name":"OSG_Scene_1","children":[10]},{"rotation":[0,-5.551115123125783e-17,0,1],"translation":[5,0,0],"scale":[0.03275513735216181,0.03275513735216181,0.03275513735216181],"name":"Couch","children":[11]},{"scale":[900,900,900],"name":"Skybox","extras":{"components":{"skybox":{"turbidity":9.88,"rayleigh":1.25,"luminance":1,"mieCoefficient":0.005,"mieDirectionalG":0.83,"inclination":-0.2,"azimuth":0.08,"distance":8000}}}},{"translation":[4,2,-4],"name":"PointLight","extras":{"components":{"point-light":{"color":"#f0dec1","intensity":1,"range":0,"castShadow":true}}}},{"name":"CombinedMesh","extras":{"components":{"shadow":{"castShadow":true,"receiveShadow":true}}},"mesh":2}],"bufferViews":[{"buffer":0,"byteOffset":0,"byteLength":576,"target":34962,"byteStride":12},{"buffer":0,"byteOffset":576,"byteLength":576,"target":34962,"byteStride":12},{"buffer":0,"byteOffset":1152,"byteLength":384,"target":34962,"byteStride":8},{"buffer":0,"byteOffset":1536,"byteLength":384,"target":34962,"byteStride":8},{"buffer":0,"byteOffset":1920,"byteLength":192,"target":34963},{"buffer":0,"byteOffset":2112,"byteLength":96432,"target":34962,"byteStride":12},{"buffer":0,"byteOffset":98544,"byteLength":96432,"target":34962,"byteStride":12},{"buffer":0,"byteOffset":194976,"byteLength":64288,"target":34962,"byteStride":8},{"buffer":0,"byteOffset":259264,"byteLength":64288,"target":34962,"byteStride":8},{"buffer":0,"byteOffset":323552,"byteLength":167808,"target":34963},{"buffer":0,"byteOffset":491360,"byteLength":10392,"target":34962,"byteStride":12},{"buffer":0,"byteOffset":501752,"byteLength":10392,"target":34962,"byteStride":12},{"buffer":0,"byteOffset":512144,"byteLength":6928,"target":34962,"byteStride":8},{"buffer":0,"byteOffset":519072,"byteLength":6928,"target":34962,"byteStride":8},{"buffer":0,"byteOffset":526000,"byteLength":2796,"target":34963}],"buffers":[{"byteLength":528796,"uri":"41e3ec4d7c.bin"}],"accessors":[{"bufferView":0,"componentType":5126,"count":48,"max":[1,1,1],"min":[-1,-1,-1],"type":"VEC3"},{"bufferView":1,"componentType":5126,"count":48,"max":[0.4699999988079071,2.2199997901916504,0.13821685314178467],"min":[-0.4699999988079071,0,0.08315185457468033],"type":"VEC3"},{"bufferView":2,"componentType":5126,"count":48,"max":[0.5301302075386047,0.8631702661514282],"min":[0.38179948925971985,0.5827717185020447],"type":"VEC2"},{"bufferView":3,"componentType":5126,"count":48,"max":[0.5301302075386047,0.8631702661514282],"min":[0.38179948925971985,0.5827717185020447],"type":"VEC2"},{"bufferView":4,"componentType":5123,"count":96,"max":[47],"min":[0],"type":"SCALAR"},{"bufferView":5,"componentType":5126,"count":8036,"max":[1,1,1],"min":[-1,-1,-0.9999978542327881],"type":"VEC3"},{"bufferView":6,"componentType":5126,"count":8036,"max":[19.5,40,38.01129913330078],"min":[-19.5,-40,0.011300000362098217],"type":"VEC3"},{"bufferView":7,"componentType":5126,"count":8036,"max":[1.0023000240325928,0.9966999888420105],"min":[0.003700000001117587,0.004999999888241291],"type":"VEC2"},{"bufferView":8,"componentType":5126,"count":8036,"max":[1.0023000240325928,0.9966999888420105],"min":[0.003700000001117587,0.004999999888241291],"type":"VEC2"},{"bufferView":9,"componentType":5125,"count":41952,"max":[8035],"min":[0],"type":"SCALAR"},{"bufferView":10,"componentType":5126,"count":866,"max":[1,1,1],"min":[-1,-1,-1],"type":"VEC3"},{"bufferView":11,"componentType":5126,"count":866,"max":[6.149999618530273,4.375,6.149999618530273],"min":[-6.149999618530273,-0.125,-6.124999523162842],"type":"VEC3"},{"bufferView":12,"componentType":5126,"count":866,"max":[0.9958220720291138,0.9983996152877808],"min":[0.0024771783500909805,0.004678547382354736],"type":"VEC2"},{"bufferView":13,"componentType":5126,"count":866,"max":[0.9958220720291138,0.9983996152877808],"min":[0.0024771783500909805,0.004678547382354736],"type":"VEC2"},{"bufferView":14,"componentType":5123,"count":1398,"max":[865],"min":[0],"type":"SCALAR"}],"materials":[{"pbrMetallicRoughness":{"baseColorFactor":[1,0,0,1],"metallicFactor":0,"roughnessFactor":1},"occlusionTexture":{"index":0},"extensions":{"MOZ_alt_materials":{"KHR_materials_unlit":3}}},{"pbrMetallicRoughness":{"metallicFactor":0,"roughnessFactor":1,"metallicRoughnessTexture":{"index":1},"baseColorTexture":{"index":2}},"normalTexture":{"index":3,"scale":1},"occlusionTexture":{"index":1},"doubleSided":true,"name":"Scene_-_Root","extensions":{"MOZ_alt_materials":{"KHR_materials_unlit":4}}},{"pbrMetallicRoughness":{"metallicFactor":0,"roughnessFactor":1,"baseColorTexture":{"index":4}},"occlusionTexture":{"index":5},"extensions":{"MOZ_alt_materials":{"KHR_materials_unlit":5}}},{"pbrMetallicRoughness":{"baseColorTexture":{"index":6},"roughnessFactor":0.9,"metallicFactor":0},"extensions":{"KHR_materials_unlit":{}}},{"pbrMetallicRoughness":{"baseColorTexture":{"index":7},"roughnessFactor":0.9,"metallicFactor":0},"extensions":{"KHR_materials_unlit":{}}},{"pbrMetallicRoughness":{"baseColorTexture":{"index":8},"roughnessFactor":0.9,"metallicFactor":0},"extensions":{"KHR_materials_unlit":{}}}],"textures":[{"sampler":0,"source":0},{"sampler":1,"source":1},{"sampler":2,"source":2},{"sampler":3,"source":3},{"sampler":4,"source":4},{"sampler":5,"source":0},{"source":5},{"source":6},{"source":7}],"samplers":[{"magFilter":9729,"minFilter":9987},{"magFilter":9729,"minFilter":9987},{"magFilter":9729,"minFilter":9987},{"magFilter":9729,"minFilter":9987},{"magFilter":9729,"minFilter":9987},{"magFilter":9729,"minFilter":9987}],"images":[{"mimeType":"image/jpeg","uri":"ea2042affb.jpg"},{"mimeType":"image/png","uri":"15e4c98387.png"},{"mimeType":"image/png","uri":"d9e73907c9.png"},{"mimeType":"image/png","uri":"208c585372.png"},{"mimeType":"image/jpeg","uri":"2cd4e0c8c5.jpg"},{"uri":"ce2cfb47fc.jpg"},{"uri":"2a0db6f71a.jpg"},{"uri":"349d9824ba.jpg"}],"meshes":[{"primitives":[{"mode":4,"attributes":{"NORMAL":0,"POSITION":1,"TEXCOORD_0":2,"TEXCOORD_1":3},"indices":4,"material":0}]},{"primitives":[{"mode":4,"attributes":{"NORMAL":5,"POSITION":6,"TEXCOORD_0":7,"TEXCOORD_1":8},"indices":9,"material":1}]},{"primitives":[{"mode":4,"attributes":{"NORMAL":10,"POSITION":11,"TEXCOORD_0":12,"TEXCOORD_1":13},"indices":14,"material":2}]}],"extensionsUsed":["MOZ_alt_materials","KHR_materials_unlit"]}
