{"asset":{"version":"2.0","generator":"THREE.GLTFExporter"},"scenes":[{"nodes":[0,1,2],"name":"Scene"}],"scene":0,"nodes":[{"translation":[-2,0,2],"name":"DirectionalLight","extras":{"components":{"directional-light":{"color":"white","intensity":1,"castShadow":true,"elevation":63,"azimuth":245}}}},{"name":"AmbientLight","extras":{"components":{"ambient-light":{"color":"white","intensity":1}}}},{"name":"CombinedMesh","mesh":0}],"bufferViews":[{"buffer":0,"byteOffset":0,"byteLength":9504,"target":34962,"byteStride":12},{"buffer":0,"byteOffset":9504,"byteLength":9504,"target":34962,"byteStride":12},{"buffer":0,"byteOffset":19008,"byteLength":6336,"target":34962,"byteStride":8},{"buffer":0,"byteOffset":25344,"byteLength":6336,"target":34962,"byteStride":8},{"buffer":0,"byteOffset":31680,"byteLength":2484,"target":34963}],"buffers":[{"byteLength":34164,"uri":"a6b0d04b65.bin"}],"accessors":[{"bufferView":0,"componentType":5126,"count":792,"max":[1,1,1],"min":[-1,-1,-1],"type":"VEC3"},{"bufferView":1,"componentType":5126,"count":792,"max":[3,2.875,3],"min":[-3,-0.25,-1.1499993801116943],"type":"VEC3"},{"bufferView":2,"componentType":5126,"count":792,"max":[0.9934106469154358,0.9983996152877808],"min":[0.18997718393802643,0.1921786069869995],"type":"VEC2"},{"bufferView":3,"componentType":5126,"count":792,"max":[0.9934106469154358,0.9983996152877808],"min":[0.18997718393802643,0.1921786069869995],"type":"VEC2"},{"bufferView":4,"componentType":5123,"count":1242,"max":[791],"min":[0],"type":"SCALAR"}],"materials":[{"pbrMetallicRoughness":{"metallicFactor":0,"roughnessFactor":1,"baseColorTexture":{"index":0}},"occlusionTexture":{"index":1},"extensions":{"MOZ_alt_materials":{"KHR_materials_unlit":1}}},{"pbrMetallicRoughness":{"baseColorTexture":{"index":2},"roughnessFactor":0.9,"metallicFactor":0},"extensions":{"KHR_materials_unlit":{}}}],"textures":[{"sampler":0,"source":0},{"sampler":1,"source":1},{"source":2}],"samplers":[{"magFilter":9729,"minFilter":9987},{"magFilter":9729,"minFilter":9987}],"images":[{"mimeType":"image/jpeg","uri":"2cd4e0c8c5.jpg"},{"mimeType":"image/jpeg","uri":"ea2042affb.jpg"},{"uri":"349d9824ba.jpg"}],"meshes":[{"primitives":[{"mode":4,"attributes":{"NORMAL":0,"POSITION":1,"TEXCOORD_0":2,"TEXCOORD_1":3},"indices":4,"material":0}]}],"extensionsUsed":["MOZ_alt_materials","KHR_materials_unlit"]}
