{"accessors":[{"bufferView":2,"componentType":5126,"count":8036,"max":[19.5,40,38.01129913330078],"min":[-19.5,-40,0.011300000362098217],"type":"VEC3"},{"bufferView":2,"byteOffset":96432,"componentType":5126,"count":8036,"max":[1,1,1],"min":[-1,-1,-0.9999978542327881],"type":"VEC3"},{"bufferView":3,"componentType":5126,"count":8036,"max":[1,0.9999966621398926,1,1],"min":[-0.9999865293502808,-0.9999966621398926,-1,-1],"type":"VEC4"},{"bufferView":1,"componentType":5126,"count":8036,"max":[1.0023000240325928,0.9966999888420105],"min":[0.003700000001117587,0.004999999888241291],"type":"VEC2"},{"bufferView":0,"componentType":5125,"count":41952,"max":[8035],"min":[0],"type":"SCALAR"}],"asset":{"extras":{"author":"katjagricishina (https://sketchfab.com/katjagricishina)","license":"CC-BY-4.0 (http://creativecommons.org/licenses/by/4.0/)","source":"https://sketchfab.com/models/03550a3529c24611a12aa158747374e0","title":"Sofa"},"generator":"Sketchfab-3.19.6","version":"2.0"},"bufferViews":[{"buffer":0,"byteLength":167808,"byteOffset":0,"name":"floatBufferViews","target":34963},{"buffer":0,"byteLength":64288,"byteOffset":167808,"byteStride":8,"name":"floatBufferViews","target":34962},{"buffer":0,"byteLength":192864,"byteOffset":232096,"byteStride":12,"name":"floatBufferViews","target":34962},{"buffer":0,"byteLength":128576,"byteOffset":424960,"byteStride":16,"name":"floatBufferViews","target":34962}],"buffers":[{"byteLength":553536,"uri":"scene.bin"}],"images":[{"uri":"textures/Scene_-_Root_metallicRoughness.png"},{"uri":"textures/Scene_-_Root_normal.png"},{"uri":"textures/Scene_-_Root_baseColor.png"}],"materials":[{"doubleSided":true,"emissiveFactor":[0,0,0],"name":"Scene_-_Root","normalTexture":{"index":1,"scale":1,"texCoord":0},"occlusionTexture":{"index":0,"strength":1,"texCoord":0},"pbrMetallicRoughness":{"baseColorFactor":[1,1,1,1],"baseColorTexture":{"index":2,"texCoord":0},"metallicFactor":0,"metallicRoughnessTexture":{"index":0,"texCoord":0},"roughnessFactor":1}}],"meshes":[{"primitives":[{"attributes":{"NORMAL":1,"POSITION":0,"TANGENT":2,"TEXCOORD_0":3},"indices":4,"material":0,"mode":4}]}],"nodes":[{"children":[1],"name":"RootNode (gltf orientation matrix)","rotation":[-0.7071067811865475,0,0,0.7071067811865476]},{"children":[2],"name":"RootNode (model correction matrix)"},{"children":[3],"name":"ready.obj.cleaner.materialmerger.gles"},{"mesh":0,"name":"node_0-0-0-0-0"}],"samplers":[{"magFilter":9729,"minFilter":9987,"wrapS":10497,"wrapT":10497}],"scene":0,"scenes":[{"name":"OSG_Scene","nodes":[0]}],"textures":[{"sampler":0,"source":0},{"sampler":0,"source":1},{"sampler":0,"source":2}]}